<?xml version="1.0" encoding="iso-8859-1"?>
<!-- Generator: Adobe Illustrator 19.0.0, SVG Export Plug-In . SVG Version: 6.00 Build 0)  -->
<svg width="24px" height="24px" viewBox="0 0 48 48" fill="none"
	xmlns="http://www.w3.org/2000/svg">
	<path d="M29.7564 21.6745C29.7564 22.7085 29.7348 23.7425 29.7564 24.7765C29.7781 25.2505 29.6052 25.6598 29.3891 26.0475C28.6545 27.4478 27.5309 28.4602 26.2992 29.365C25.651 29.8389 24.9595 30.2698 24.2465 30.636C24.1168 30.7006 24.0088 30.7652 23.8575 30.6791C21.9561 29.6666 20.2058 28.4602 18.9526 26.6292C18.4772 25.9398 18.2179 25.2289 18.2395 24.3672C18.2827 22.3854 18.2611 20.382 18.2395 18.4001C18.2395 18.0985 18.3476 17.9477 18.6069 17.84C22.1937 16.4613 25.8022 16.4398 29.3891 17.8615C29.6484 17.9693 29.7348 18.077 29.7348 18.357C29.7565 19.4557 29.7564 20.5758 29.7564 21.6745Z" fill="#FFC900" />
	<path d="M23.9869 33.5516C23.8473 33.5516 23.7077 33.5283 23.5449 33.4352C21.4508 32.3184 18.7984 30.713 16.937 28.0373C16.2157 26.9902 15.89 25.9665 15.9133 24.7799C15.9598 22.4997 15.9598 20.173 15.9365 17.9161V17.0784C15.9365 16.4502 16.1925 16.0547 16.7742 15.8453C21.5904 14.0072 26.4765 14.0072 31.2695 15.8686C31.828 16.078 32.0606 16.4502 32.0606 17.0319C32.0374 18.0789 32.0374 19.1259 32.0606 20.173C32.0606 20.5685 32.0606 20.964 32.0606 21.3363C32.0606 21.7319 32.0606 22.1041 32.0606 22.4997C32.0606 23.4304 32.0606 24.3843 32.0839 25.3383C32.1072 26.0828 31.828 26.711 31.5488 27.2694C30.4785 29.2937 28.8265 30.6664 27.3374 31.7367C26.4998 32.3417 25.5691 32.9233 24.5686 33.412C24.429 33.4352 24.2196 33.5516 23.9869 33.5516ZM17.0301 16.8923C17.0301 16.8923 17.0068 16.9388 17.0068 17.0552V17.8928C17.0301 20.1497 17.0534 22.4997 16.9836 24.8031C16.9603 25.7338 17.2162 26.5714 17.7979 27.409C19.4964 29.8754 21.986 31.411 23.9637 32.458C23.987 32.458 24.0102 32.4347 24.0335 32.4347C24.9642 31.9694 25.8483 31.4343 26.6627 30.8526C28.0354 29.8521 29.5943 28.5957 30.5483 26.7343C30.8042 26.2224 30.9671 25.8269 30.9671 25.3383C30.9438 24.3843 30.9438 23.4071 30.9438 22.4764C30.9438 22.0809 30.9438 21.7086 30.9438 21.3131C30.9438 20.9175 30.9438 20.5452 30.9438 20.1497C30.9438 19.1259 30.9438 18.0557 30.9438 17.0086C30.9438 16.9621 30.9438 16.9388 30.9438 16.9156C30.9205 16.9156 30.8973 16.8923 30.8507 16.869C26.3137 15.124 21.6835 15.1007 17.1232 16.8458C17.0534 16.869 17.0301 16.8923 17.0301 16.8923Z" fill="white" />
	<path d="M23.9884 0C10.7494 0 0 10.7494 0 23.9884C0 37.2506 10.7494 47.9767 23.9884 47.9767C37.2273 47.9767 47.9767 37.2273 47.9767 23.9884C48 10.7494 37.2506 0 23.9884 0ZM23.9884 40.9268C14.635 40.9268 7.07319 33.3417 7.07319 24.0116C7.07319 14.6583 14.6583 7.09646 23.9884 7.09646C33.3185 7.09646 40.9035 14.6815 40.9035 24.0116C40.9268 33.3417 33.3417 40.9268 23.9884 40.9268Z" fill="#327DF4" />
</svg>