<svg width="40" height="24" viewBox="0 0 40 24" fill="none" xmlns="http://www.w3.org/2000/svg">
<g clip-path="url(#clip0)">
<path d="M11.266 8.7174C11.266 9.21124 11.3192 9.61164 11.4123 9.90527C11.5187 10.1989 11.6518 10.5192 11.838 10.8662C11.9045 10.973 11.9311 11.0798 11.9311 11.1732C11.9311 11.3067 11.8513 11.4401 11.6784 11.5736L10.8403 12.1342C10.7206 12.2143 10.6009 12.2543 10.4945 12.2543C10.3614 12.2543 10.2284 12.1876 10.0954 12.0674C9.90916 11.8672 9.74953 11.6537 9.61651 11.4401C9.48349 11.2133 9.35046 10.9597 9.20414 10.6527C8.16656 11.8806 6.86294 12.4945 5.29327 12.4945C4.17587 12.4945 3.28462 12.1742 2.63281 11.5336C1.98099 10.8929 1.64844 10.0387 1.64844 8.97099C1.64844 7.83652 2.04751 6.91559 2.85895 6.22155C3.67039 5.52752 4.74787 5.18051 6.11801 5.18051C6.57029 5.18051 7.03587 5.22055 7.52805 5.28728C8.02024 5.35401 8.52572 5.46079 9.05781 5.58091V4.60659C9.05781 3.59224 8.84498 2.88486 8.43261 2.47111C8.00693 2.05736 7.28861 1.85716 6.26433 1.85716C5.79875 1.85716 5.31987 1.91054 4.82769 2.03066C4.3355 2.15079 3.85662 2.2976 3.39104 2.48446C3.1782 2.57788 3.01857 2.63127 2.92546 2.65796C2.83234 2.68466 2.76583 2.698 2.71262 2.698C2.52639 2.698 2.43327 2.56454 2.43327 2.28425V1.63026C2.43327 1.41671 2.45988 1.25655 2.52639 1.16312C2.5929 1.0697 2.71262 0.976268 2.89885 0.882841C3.36443 0.642599 3.92313 0.442397 4.57494 0.282236C5.22675 0.108727 5.91847 0.0286467 6.6501 0.0286467C8.23307 0.0286467 9.39037 0.38901 10.1353 1.10974C10.8669 1.83046 11.2394 2.9249 11.2394 4.39305V8.7174H11.266ZM5.86526 10.7461C6.30424 10.7461 6.75652 10.666 7.2354 10.5059C7.71428 10.3457 8.13996 10.0521 8.49912 9.65168C8.71196 9.39809 8.87158 9.11781 8.9514 8.79748C9.03121 8.47716 9.08442 8.09011 9.08442 7.63631V7.07575C8.69865 6.98232 8.28628 6.90224 7.86061 6.84885C7.43493 6.79547 7.02256 6.76877 6.61019 6.76877C5.71894 6.76877 5.06713 6.94228 4.62815 7.30264C4.18918 7.66301 3.97634 8.17019 3.97634 8.83752C3.97634 9.46482 4.13597 9.93196 4.46852 10.2523C4.78778 10.586 5.25336 10.7461 5.86526 10.7461ZM16.547 12.1876C16.3076 12.1876 16.1479 12.1475 16.0415 12.0541C15.9351 11.974 15.842 11.7872 15.7622 11.5336L12.6361 1.21651C12.5563 0.949575 12.5164 0.776067 12.5164 0.682639C12.5164 0.469091 12.6228 0.34897 12.8357 0.34897H14.1393C14.392 0.34897 14.565 0.38901 14.6581 0.482437C14.7645 0.562518 14.8443 0.749373 14.9241 1.00296L17.1589 9.83853L19.2341 1.00296C19.3006 0.736026 19.3804 0.562518 19.4868 0.482437C19.5932 0.402357 19.7795 0.34897 20.0189 0.34897H21.0831C21.3358 0.34897 21.5088 0.38901 21.6152 0.482437C21.7216 0.562518 21.8147 0.749373 21.8679 1.00296L23.9697 9.94531L26.271 1.00296C26.3508 0.736026 26.4439 0.562518 26.537 0.482437C26.6434 0.402357 26.8164 0.34897 27.0558 0.34897H28.2929C28.5058 0.34897 28.6255 0.455744 28.6255 0.682639C28.6255 0.749373 28.6122 0.816107 28.5989 0.896188C28.5856 0.976268 28.559 1.08304 28.5058 1.22986L25.2999 11.5469C25.2201 11.8139 25.127 11.9874 25.0206 12.0674C24.9142 12.1475 24.7412 12.2009 24.5151 12.2009H23.3711C23.1183 12.2009 22.9454 12.1609 22.839 12.0674C22.7326 11.974 22.6395 11.8005 22.5862 11.5336L20.5244 2.9249L18.4758 11.5202C18.4093 11.7872 18.3295 11.9607 18.2231 12.0541C18.1167 12.1475 17.9304 12.1876 17.691 12.1876H16.547ZM33.6405 12.5479C32.9487 12.5479 32.257 12.4678 31.5919 12.3077C30.9268 12.1475 30.408 11.974 30.0621 11.7738C29.8493 11.6537 29.703 11.5202 29.6498 11.4001C29.5966 11.28 29.57 11.1465 29.57 11.0264V10.3457C29.57 10.0654 29.6764 9.93196 29.8759 9.93196C29.9557 9.93196 30.0355 9.94531 30.1153 9.972C30.1952 9.9987 30.3149 10.0521 30.4479 10.1055C30.9002 10.3057 31.3924 10.4658 31.9112 10.5726C32.4432 10.6794 32.962 10.7328 33.4941 10.7328C34.3322 10.7328 34.984 10.586 35.4363 10.2923C35.8885 9.9987 36.128 9.5716 36.128 9.02438C36.128 8.65067 36.0083 8.34369 35.7688 8.09011C35.5294 7.83652 35.0771 7.60962 34.4253 7.39607L32.4965 6.79547C31.5254 6.48849 30.8071 6.0347 30.3681 5.43409C29.9291 4.84684 29.703 4.19284 29.703 3.49881C29.703 2.93825 29.8227 2.44441 30.0621 2.01732C30.3016 1.59022 30.6208 1.21651 31.0199 0.922881C31.419 0.615905 31.8713 0.38901 32.4033 0.228848C32.9354 0.0686871 33.4941 0.00195312 34.0794 0.00195312C34.3721 0.00195312 34.678 0.0152999 34.9707 0.0553403C35.2766 0.0953806 35.556 0.148768 35.8353 0.202155C36.1014 0.268889 36.3541 0.335623 36.5936 0.415703C36.833 0.495784 37.0192 0.575865 37.1523 0.655946C37.3385 0.76272 37.4715 0.869494 37.5513 0.989615C37.6311 1.09639 37.6711 1.2432 37.6711 1.43006V2.05736C37.6711 2.33764 37.5646 2.48446 37.3651 2.48446C37.2587 2.48446 37.0858 2.43107 36.8596 2.32429C36.1014 1.97728 35.25 1.80377 34.3056 1.80377C33.5473 1.80377 32.9487 1.92389 32.5364 2.17748C32.124 2.43107 31.9112 2.81813 31.9112 3.36534C31.9112 3.73905 32.0442 4.05938 32.3102 4.31296C32.5763 4.56655 33.0685 4.82014 33.7735 5.04704L35.6624 5.64764C36.6202 5.95462 37.3119 6.38172 37.7243 6.92894C38.1366 7.47615 38.3362 8.10345 38.3362 8.79748C38.3362 9.3714 38.2164 9.89192 37.9903 10.3457C37.7509 10.7995 37.4316 11.1999 37.0192 11.5202C36.6069 11.8539 36.1147 12.0941 35.5427 12.2676C34.9441 12.4545 34.3189 12.5479 33.6405 12.5479Z" fill="#252F3E"/>
<path d="M36.156 19.0334C31.7795 22.2767 25.421 23.9984 19.9538 23.9984C12.2917 23.9984 5.38778 21.1556 0.173283 16.4308C-0.239089 16.0571 0.133376 15.5499 0.625561 15.8436C6.26573 19.1269 13.2228 21.1155 20.4194 21.1155C25.2747 21.1155 30.6089 20.1012 35.5175 18.0191C36.2491 17.6854 36.8743 18.4996 36.156 19.0334Z" fill="#FF9900"/>
<path d="M37.9784 16.9526C37.4197 16.2319 34.2804 16.6056 32.857 16.7791C32.4314 16.8325 32.3648 16.4588 32.7506 16.1785C35.2514 14.4167 39.3618 14.9239 39.8407 15.5111C40.3196 16.1117 39.7077 20.2359 37.3665 22.2112C37.0073 22.5182 36.6615 22.358 36.8211 21.9576C37.3532 20.6363 38.5371 17.66 37.9784 16.9526Z" fill="#FF9900"/>
</g>
<defs>
<clipPath id="clip0">
<rect width="40" height="24" fill="white"/>
</clipPath>
</defs>
</svg>
