<svg width="16" height="10" viewBox="0 0 16 10" fill="none" xmlns="http://www.w3.org/2000/svg">
<path d="M15.7071 5.70718L12.1641 9.25024C11.9688 9.44552 11.7129 9.54315 11.4569 9.54315C11.201 9.54315 10.9451 9.44552 10.7498 9.25024C10.3593 8.85971 10.3593 8.22655 10.7498 7.83602L12.5858 6.00009H1C0.447719 6.00009 0 5.55237 0 5.00009C0 4.4478 0.447719 4.00009 1 4.00009H12.5858L10.7498 2.16415C10.3593 1.77362 10.3593 1.14046 10.7498 0.74993C11.1404 0.359398 11.7735 0.359398 12.1641 0.74993L15.7071 4.29299C16.0976 4.68349 16.0976 5.31668 15.7071 5.70718Z" fill="#230202"/>
</svg>
