<svg width="26" height="26" viewBox="0 0 16 16" fill="none" xmlns="http://www.w3.org/2000/svg"><path d="M.334.974c2.196 1.86 6.049 5.131 7.181 6.151A.717.717 0 0 0 8 7.333c.169 0 .331-.07.483-.206C9.617 6.105 13.47 2.833 15.666.974a.333.333 0 0 0 .047-.46A1.324 1.324 0 0 0 14.666 0H1.333C.924 0 .543.187.287.514a.333.333 0 0 0 .047.46z" fill="#3A5277"/><path d="M15.807 1.98a.332.332 0 0 0-.356.048C13.016 4.093 9.908 6.74 8.93 7.62c-.549.496-1.31.496-1.86 0C6.026 6.68 2.536 3.713.548 2.028A.334.334 0 0 0 0 2.283v8.383c0 .735.598 1.333 1.333 1.333h13.334c.735 0 1.333-.598 1.333-1.334V2.284a.333.333 0 0 0-.193-.303z" fill="#3A5277"/></svg>