<svg width="16" height="16" viewBox="0 0 16 16" fill="none" xmlns="http://www.w3.org/2000/svg">
<path d="M8 3.20117C5.10219 3.20117 2.20867 4.80203 0 7.99946C4.41734 14.3986 11.5827 14.3986 16 7.99946C13.7913 4.80203 10.8978 3.20117 8 3.20117ZM8 11.2011C6.23221 11.2011 4.79401 9.76721 4.79401 7.99942C4.79401 6.23163 6.23221 4.79342 8 4.79342C9.76779 4.79342 11.2017 6.23163 11.2017 7.99942C11.2017 9.76721 9.76779 11.2011 8 11.2011Z" fill="#3A5277"/>
<path d="M8.00027 9.60015C8.8844 9.60015 9.60113 8.88342 9.60113 7.99929C9.60113 7.11517 8.8844 6.39844 8.00027 6.39844C7.11614 6.39844 6.39941 7.11517 6.39941 7.99929C6.39941 8.88342 7.11614 9.60015 8.00027 9.60015Z" fill="#3A5277"/>
</svg>
