<svg width="16" height="16" viewBox="0 0 16 16" fill="none" xmlns="http://www.w3.org/2000/svg">
<path d="M8.625 16H0.78125C0.57405 16 0.375336 15.9177 0.228823 15.7712C0.08231 15.6247 0 15.426 0 15.2188L0 0.78125C0 0.57405 0.08231 0.375336 0.228823 0.228823C0.375336 0.08231 0.57405 0 0.78125 0L8.625 0C8.8322 0 9.03091 0.08231 9.17743 0.228823C9.32394 0.375336 9.40625 0.57405 9.40625 0.78125C9.40625 0.98845 9.32394 1.18716 9.17743 1.33368C9.03091 1.48019 8.8322 1.5625 8.625 1.5625H1.5625V14.4375H8.625C8.8322 14.4375 9.03091 14.5198 9.17743 14.6663C9.32394 14.8128 9.40625 15.0115 9.40625 15.2188C9.40625 15.426 9.32394 15.6247 9.17743 15.7712C9.03091 15.9177 8.8322 16 8.625 16Z" fill="#3A5277"/>
<path d="M15.0147 8.78125H5.84375C5.63655 8.78125 5.43784 8.69894 5.29132 8.55243C5.14481 8.40591 5.0625 8.2072 5.0625 8C5.0625 7.7928 5.14481 7.59409 5.29132 7.44757C5.43784 7.30106 5.63655 7.21875 5.84375 7.21875H15.0147C15.2219 7.21875 15.4206 7.30106 15.5671 7.44757C15.7136 7.59409 15.7959 7.7928 15.7959 8C15.7959 8.2072 15.7136 8.40591 15.5671 8.55243C15.4206 8.69894 15.2219 8.78125 15.0147 8.78125Z" fill="#3A5277"/>
<path d="M11.2519 12.7352C11.0973 12.7353 10.9461 12.6894 10.8175 12.6034C10.689 12.5175 10.5888 12.3953 10.5297 12.2524C10.4707 12.1094 10.4554 11.9522 10.4857 11.8006C10.5161 11.6489 10.5908 11.5097 10.7004 11.4006L14.1116 8.00024L10.7004 4.59993C10.6256 4.52799 10.566 4.44188 10.5249 4.34664C10.4838 4.25139 10.4621 4.14892 10.461 4.04519C10.4599 3.94146 10.4795 3.83856 10.5186 3.74249C10.5577 3.64642 10.6156 3.55909 10.6888 3.48562C10.762 3.41215 10.8492 3.35399 10.9451 3.31455C11.0411 3.2751 11.1439 3.25516 11.2476 3.25588C11.3513 3.2566 11.4539 3.27797 11.5493 3.31874C11.6447 3.35952 11.731 3.41888 11.8032 3.49337L15.77 7.4468C15.8429 7.51939 15.9007 7.60564 15.9401 7.70061C15.9796 7.79558 15.9999 7.89741 15.9999 8.00024C15.9999 8.10308 15.9796 8.2049 15.9401 8.29987C15.9007 8.39485 15.8429 8.4811 15.77 8.55368L11.8032 12.5071C11.7308 12.5795 11.6449 12.6369 11.5503 12.6761C11.4557 12.7152 11.3543 12.7353 11.2519 12.7352Z" fill="#3A5277"/>
</svg>
