<svg width="24" height="24" viewBox="0 0 24 24" fill="none" xmlns="http://www.w3.org/2000/svg">
<g clip-path="url(#clip0_0:1407)">
<path d="M18.0458 21.0839C17.6976 20.243 16.8681 19.7472 16.0087 19.7834L15.4338 18.405C15.0233 18.6255 14.5891 18.8078 14.1361 18.9469L14.7039 20.3083C14.0457 20.8879 13.7949 21.8425 14.1492 22.6979C14.5949 23.774 15.8285 24.2849 16.9046 23.8392C17.9806 23.3935 18.4916 22.1599 18.0458 21.0839Z" fill="#3A5277"/>
<path d="M9.85063 1.30273C9.40495 0.22671 8.17134 -0.284274 7.09533 0.16146C6.01931 0.607195 5.50833 1.84076 5.95406 2.91677C6.30234 3.75766 7.1318 4.25346 7.9912 4.21727L8.56607 5.59568C8.9766 5.37518 9.41071 5.19293 9.86376 5.05385L9.29596 3.69237C9.95418 3.1128 10.205 2.15819 9.85063 1.30273Z" fill="#3A5277"/>
<path d="M4.21386 8.0368C4.26945 7.1616 3.77178 6.30923 2.91636 5.9549C1.84034 5.50921 0.606735 6.02015 0.161048 7.09616C-0.284593 8.17223 0.226344 9.40583 1.30236 9.85152C2.14325 10.1999 3.08038 9.96388 3.66247 9.33055L5.04331 9.89863C5.18023 9.44483 5.36028 9.00988 5.57877 8.59832L4.21386 8.0368Z" fill="#3A5277"/>
<path d="M5.59531 15.4325C5.37477 15.0221 5.19256 14.5879 5.05348 14.1349L3.692 14.7027C3.11244 14.0445 2.15783 13.7937 1.30236 14.148C0.226344 14.5937 -0.28464 15.8273 0.161094 16.9033C0.606782 17.9794 1.84039 18.4903 2.91641 18.0446C3.7573 17.6963 4.25309 16.8668 4.21691 16.0074L5.59531 15.4325Z" fill="#3A5277"/>
<path d="M23.8404 7.0963C23.3948 6.02029 22.1612 5.50931 21.0851 5.95504C20.2443 6.30332 19.7485 7.13282 19.7846 7.99227L18.4062 8.56715C18.6267 8.97759 18.809 9.4117 18.9481 9.86474L20.3096 9.29695C20.8891 9.95516 21.8437 10.2059 22.6992 9.85162C23.7752 9.40593 24.2862 8.17232 23.8404 7.0963Z" fill="#3A5277"/>
<path d="M9.32971 20.3371L9.89779 18.9562C9.44399 18.8193 9.00903 18.6393 8.59747 18.4208L8.03595 19.7857C7.16075 19.7301 6.30837 20.2278 5.95404 21.0832C5.50836 22.1592 6.01929 23.3928 7.09531 23.8385C8.17133 24.2842 9.40494 23.7732 9.85063 22.6972C10.199 21.8563 9.96304 20.9192 9.32971 20.3371Z" fill="#3A5277"/>
<path d="M16.9047 0.161074C15.8287 -0.284613 14.5951 0.226324 14.1494 1.30234C13.801 2.14323 14.037 3.08031 14.6703 3.66245L14.1022 5.04329C14.556 5.18021 14.991 5.36026 15.4025 5.57875L15.964 4.21389C16.8393 4.26948 17.6916 3.77181 18.0459 2.91639C18.4917 1.84037 17.9807 0.606762 16.9047 0.161074Z" fill="#3A5277"/>
<path d="M22.6983 14.1489C21.8574 13.8006 20.9203 14.0365 20.3382 14.6698L18.9573 14.1017C18.8204 14.5555 18.6404 14.9905 18.4219 15.402L19.7868 15.9636C19.7312 16.8388 20.2289 17.6911 21.0843 18.0455C22.1603 18.4912 23.3939 17.9802 23.8396 16.9042C24.2852 15.8282 23.7743 14.5946 22.6983 14.1489Z" fill="#3A5277"/>
<path d="M12 8.93542C10.32 8.93542 8.95312 10.3023 8.95312 11.9823C8.95312 13.6623 10.32 15.0292 12 15.0292C13.68 15.0292 15.0469 13.6623 15.0469 11.9823C15.0469 10.3023 13.68 8.93542 12 8.93542Z" fill="#3A5277"/>
<path d="M12 6.14075C8.76394 6.14075 6.14062 8.76406 6.14062 12.0001C6.14062 15.2362 8.76394 17.8595 12 17.8595C15.2361 17.8595 17.8594 15.2362 17.8594 12.0001C17.8594 8.76406 15.2361 6.14075 12 6.14075ZM12 16.4356C9.54455 16.4356 7.54688 14.4379 7.54688 11.9824C7.54688 9.527 9.54455 7.52932 12 7.52932C14.4555 7.52932 16.4531 9.527 16.4531 11.9824C16.4531 14.4379 14.4555 16.4356 12 16.4356Z" fill="#3A5277"/>
</g>
<defs>
<clipPath id="clip0_0:1407">
<rect width="24" height="24" fill="white"/>
</clipPath>
</defs>
</svg>
