<svg width="16" height="16" viewBox="0 0 16 16" fill="none" xmlns="http://www.w3.org/2000/svg">
<g clip-path="url(#clip0_0:1875)">
<path d="M15.355 3.64464L12.355 0.644642C12.3083 0.598301 12.2529 0.561639 12.192 0.536757C12.131 0.511874 12.0658 0.499262 12 0.499642H11V4.49964C11 4.76486 10.8946 5.01921 10.7071 5.20675C10.5196 5.39429 10.2652 5.49964 10 5.49964H6C5.73478 5.49964 5.48043 5.39429 5.29289 5.20675C5.10536 5.01921 5 4.76486 5 4.49964V0.499642H2C1.60218 0.499642 1.22064 0.657677 0.93934 0.938982C0.658035 1.22029 0.5 1.60182 0.5 1.99964V13.9996C0.5 14.3975 0.658035 14.779 0.93934 15.0603C1.22064 15.3416 1.60218 15.4996 2 15.4996H3V10.9996C3 10.6018 3.15804 10.2203 3.43934 9.93898C3.72064 9.65768 4.10218 9.49964 4.5 9.49964H11.5C11.8978 9.49964 12.2794 9.65768 12.5607 9.93898C12.842 10.2203 13 10.6018 13 10.9996V15.4996H14C14.3978 15.4996 14.7794 15.3416 15.0607 15.0603C15.342 14.779 15.5 14.3975 15.5 13.9996V3.99964C15.5004 3.93384 15.4878 3.86861 15.4629 3.80769C15.438 3.74677 15.4013 3.69136 15.355 3.64464Z" fill="white"/>
<path d="M6 0.499878H10V4.49988H6V0.499878Z" fill="white"/>
<path d="M11.5 10.4999H4.5C4.36739 10.4999 4.24021 10.5526 4.14645 10.6463C4.05268 10.7401 4 10.8673 4 10.9999V15.4999H12V10.9999C12 10.8673 11.9473 10.7401 11.8536 10.6463C11.7598 10.5526 11.6326 10.4999 11.5 10.4999Z" fill="white"/>
</g>
<defs>
<clipPath id="clip0_0:1875">
<rect width="16" height="16" fill="white" transform="translate(0 -0.00012207)"/>
</clipPath>
</defs>
</svg>
