<svg width="16" height="16" viewBox="0 0 16 16" fill="none" xmlns="http://www.w3.org/2000/svg">
<g clip-path="url(#clip0_0:1864)">
<path d="M6.4395 12.8736C7.8696 12.8736 9.2588 12.3965 10.387 11.5177L14.6436 15.7742C14.9615 16.0813 15.4682 16.0725 15.7753 15.7545C16.0749 15.4444 16.0749 14.9526 15.7753 14.6425L11.5188 10.386C13.6994 7.57893 13.1916 3.53567 10.3846 1.35506C7.57756 -0.825542 3.53433 -0.317754 1.35372 2.48927C-0.826884 5.2963 -0.319097 9.33957 2.48793 11.5202C3.61801 12.3981 5.00846 12.8743 6.4395 12.8736ZM3.01943 3.01831C4.9083 1.12941 7.97076 1.12937 9.85967 3.01824C11.7486 4.90711 11.7486 7.96958 9.85974 9.85848C7.97087 11.7474 4.90841 11.7474 3.0195 9.85855C3.01947 9.85852 3.01947 9.85852 3.01943 9.85848C1.13056 7.98337 1.11943 4.93207 2.99454 3.0432C3.00282 3.03488 3.01111 3.0266 3.01943 3.01831Z" fill="#3A5277"/>
</g>
<defs>
<clipPath id="clip0_0:1864">
<rect width="16" height="16" fill="white"/>
</clipPath>
</defs>
</svg>
