<svg width="28" height="28" viewBox="0 0 28 28" fill="none"
    xmlns="http://www.w3.org/2000/svg">
    <path d="M12.6875 4.8125V10.9375C12.6875 11.4016 12.5031 11.8467 12.1749 12.1749C11.8467 12.5031 11.4016 12.6875 10.9375 12.6875H4.8125C4.34837 12.6875 3.90325 12.5031 3.57506 12.1749C3.24687 11.8467 3.0625 11.4016 3.0625 10.9375V4.8125C3.0625 4.34837 3.24687 3.90325 3.57506 3.57506C3.90325 3.24687 4.34837 3.0625 4.8125 3.0625H10.9375C11.4016 3.0625 11.8467 3.24687 12.1749 3.57506C12.5031 3.90325 12.6875 4.34837 12.6875 4.8125ZM23.1875 3.0625H17.0625C16.5984 3.0625 16.1533 3.24687 15.8251 3.57506C15.4969 3.90325 15.3125 4.34837 15.3125 4.8125V10.9375C15.3125 11.4016 15.4969 11.8467 15.8251 12.1749C16.1533 12.5031 16.5984 12.6875 17.0625 12.6875H23.1875C23.6516 12.6875 24.0967 12.5031 24.4249 12.1749C24.7531 11.8467 24.9375 11.4016 24.9375 10.9375V4.8125C24.9375 4.34837 24.7531 3.90325 24.4249 3.57506C24.0967 3.24687 23.6516 3.0625 23.1875 3.0625ZM10.9375 15.3125H4.8125C4.34837 15.3125 3.90325 15.4969 3.57506 15.8251C3.24687 16.1533 3.0625 16.5984 3.0625 17.0625V23.1875C3.0625 23.6516 3.24687 24.0967 3.57506 24.4249C3.90325 24.7531 4.34837 24.9375 4.8125 24.9375H10.9375C11.4016 24.9375 11.8467 24.7531 12.1749 24.4249C12.5031 24.0967 12.6875 23.6516 12.6875 23.1875V17.0625C12.6875 16.5984 12.5031 16.1533 12.1749 15.8251C11.8467 15.4969 11.4016 15.3125 10.9375 15.3125ZM20.125 15.3125C19.1732 15.3125 18.2427 15.5947 17.4513 16.1236C16.6599 16.6524 16.0431 17.404 15.6788 18.2833C15.3146 19.1627 15.2193 20.1303 15.405 21.0639C15.5907 21.9974 16.049 22.8549 16.722 23.528C17.3951 24.201 18.2526 24.6593 19.1861 24.845C20.1197 25.0307 21.0873 24.9354 21.9667 24.5712C22.846 24.2069 23.5976 23.5901 24.1264 22.7987C24.6553 22.0073 24.9375 21.0768 24.9375 20.125C24.9375 18.8486 24.4305 17.6246 23.528 16.722C22.6254 15.8195 21.4014 15.3125 20.125 15.3125Z" fill="#3A5277" />
</svg>