<svg width="24" height="24" viewBox="0 0 24 24" fill="none"
    xmlns="http://www.w3.org/2000/svg">
    <path d="M20.5023 3.49421C16.366 -0.642841 9.75451 -1.15054 5.03753 2.20767C3.60606 1.40522 1.88425 2.35632 1.88425 3.9915C1.88425 4.37752 1.9944 4.74455 2.18739 5.06775C-1.14416 9.78328 -0.628768 16.3733 3.49726 20.4993C5.8157 22.8177 8.93054 24 12.0108 24C14.413 24 16.8651 23.2705 18.9312 21.8101C19.2538 22.0024 19.62 22.1123 20.005 22.1123C21.1712 22.1123 22.1153 21.169 22.1153 20.0019C22.1153 19.6158 22.0054 19.2489 21.8123 18.9256C25.1438 14.2101 24.6283 7.62019 20.5023 3.49421ZM11.2964 22.5683C8.82292 22.4018 6.35856 21.3716 4.49195 19.5046C2.62534 17.638 1.59531 15.1736 1.42876 12.7002H4.26465C4.35995 13.7677 4.69136 14.8607 5.23633 15.8297C4.67767 16.646 4.75065 17.774 5.48664 18.51C6.2259 19.2491 7.3525 19.3143 8.16076 18.7652C9.13098 19.3117 10.2278 19.6309 11.2964 19.7265V22.5683ZM11.2964 18.3151C10.5175 18.2295 9.70872 17.9933 8.99368 17.6139C9.2305 16.8098 8.98975 16.044 8.47145 15.5258C7.92972 14.9836 7.11901 14.8405 6.40079 15.036C6.01112 14.3115 5.76897 13.4911 5.68197 12.7001H10.019C10.2316 13.2961 10.7004 13.7649 11.2963 13.9774V18.3151H11.2964ZM11.2964 10.016C10.7004 10.2285 10.2316 10.6973 10.0191 11.2933H5.67212C5.9912 8.44589 8.20295 6.03347 11.2964 5.6896V10.016ZM11.2964 4.28278C7.41147 4.63571 4.59151 7.67007 4.25922 11.2934H1.43575C1.55706 9.44264 2.16475 7.57036 3.27203 5.96817C3.5012 6.05175 3.74336 6.10186 3.99461 6.10186C5.15889 6.10186 6.10492 5.15911 6.10492 3.99155C6.10492 3.7403 6.05476 3.49805 5.97123 3.26888C7.57347 2.16136 9.44575 1.55358 11.2964 1.43227V4.28278ZM12.7033 5.68964C13.8594 5.81817 15.02 6.26396 15.9759 7.02614L12.904 10.098C12.8388 10.0668 12.772 10.0405 12.7033 10.0161V5.68964ZM12.7033 4.28269V1.42519C14.9548 1.57678 17.2018 2.45185 18.9872 4.01461L16.9706 6.03122C15.7344 5.00316 14.2203 4.4205 12.7033 4.28269ZM12.7033 13.9775C13.2992 13.765 13.768 13.2915 13.9806 12.6955H18.307C17.9621 15.7973 15.5412 18.0066 12.7033 18.3248V13.9775ZM20.7141 18.0445C19.2789 17.5564 17.8947 18.5645 17.8947 20.002C17.8947 20.2532 17.9448 20.4955 18.0285 20.7247C16.4262 21.8322 14.5539 22.44 12.7032 22.5613V19.7071C16.4972 19.3568 19.3713 16.4596 19.7133 12.6955H22.5639C22.4421 14.5535 21.8298 16.4376 20.7141 18.0445Z" fill="#3A5277" />
</svg>