<svg width="24" height="24" viewBox="0 0 24 24" fill="none"
    xmlns="http://www.w3.org/2000/svg">
    <path fillRule="evenodd" clipRule="evenodd" d="M13.9354 1.93545C13.9354 2.87184 13.2701 3.65289 12.3869 3.83222V11.6129H20.1677C20.3472 10.7294 21.1277 10.0645 22.0646 10.0645C23.1331 10.0645 24 10.931 24 12C24 13.069 23.1331 13.9355 22.0646 13.9355C21.1277 13.9355 20.3472 13.2706 20.1677 12.3871H12.3869V20.1678C13.2701 20.3471 13.9354 21.1282 13.9354 22.0645C13.9354 23.1334 13.0685 24 12 24C10.9315 24 10.0646 23.1334 10.0646 22.0645C10.0646 21.1282 10.7299 20.3471 11.6131 20.1678V12.3871H3.83232C3.6528 13.2706 2.87231 13.9355 1.93535 13.9355C0.866872 13.9355 0 13.069 0 12C0 10.931 0.866872 10.0645 1.93535 10.0645C2.87231 10.0645 3.6528 10.7294 3.83232 11.6129H11.6131V3.83222C10.7299 3.65289 10.0646 2.87184 10.0646 1.93545C10.0646 0.86659 10.9315 0 12 0C13.0685 0 13.9354 0.86659 13.9354 1.93545Z" fill="#3A5277" />
</svg>