<svg width="25" height="24" viewBox="0 0 25 24" fill="none"
    xmlns="http://www.w3.org/2000/svg">
    <path d="M23.9267 0L1.02539 0C0.620842 0 0.292969 0.314758 0.292969 0.703125L0.292969 11.4717C0.292969 15.2622 2.43816 18.7586 5.89142 20.5964L12.1208 23.9117C12.2313 23.9705 12.3537 24 12.476 24C12.5982 24 12.7207 23.9705 12.8311 23.9117L19.0605 20.5964C22.5138 18.7586 24.659 15.2622 24.659 11.4717V0.703125C24.6592 0.314758 24.3311 0 23.9267 0ZM20.093 12.8172C19.8782 12.8172 19.6693 12.7264 19.5274 12.561L17.09 9.72015V12.1141C17.09 12.5024 16.7622 12.8172 16.3576 12.8172C15.9533 12.8172 15.6252 12.5024 15.6252 12.1141V7.76056C15.6252 7.46375 15.8194 7.19897 16.1104 7.09863C16.4013 6.99847 16.7265 7.08453 16.9231 7.3136L19.3605 10.1545V7.76056C19.3605 7.37219 19.6884 7.05743 20.093 7.05743C20.4973 7.05743 20.8254 7.37219 20.8254 7.76056V12.1141C20.8254 12.4109 20.6312 12.6757 20.3402 12.776C20.2593 12.8038 20.1756 12.8172 20.093 12.8172ZM13.2099 10.6404H11.3409V12.1141C11.3409 12.5024 11.013 12.8172 10.6085 12.8172C10.2039 12.8172 9.87606 12.5024 9.87606 12.1141V7.76056C9.87606 7.37219 10.2039 7.05743 10.6085 7.05743H13.2099C14.2389 7.05743 15.0761 7.86108 15.0761 8.84894C15.0761 9.83679 14.2389 10.6404 13.2099 10.6404ZM6.72684 10.2676L7.91721 7.49286C8.07114 7.13379 8.49915 6.9624 8.87337 7.11035C9.2474 7.2583 9.42574 7.66919 9.27162 8.02826L7.40414 12.3818C7.29103 12.6453 7.02362 12.8172 6.72684 12.8172C6.43005 12.8172 6.16264 12.6453 6.04954 12.3818L4.18205 8.02826C4.02794 7.66919 4.20628 7.2583 4.58031 7.11035C4.95434 6.96259 5.38235 7.13379 5.53646 7.49286L6.72684 10.2676Z" fill="#3A5277" />
    <path d="M13.2083 8.46484H11.3398V9.23535H13.2083C13.4294 9.23535 13.6094 9.0625 13.6094 8.8501C13.6094 8.6377 13.4294 8.46484 13.2083 8.46484Z" fill="#3A5277" />
</svg>