<svg width="68" height="78" viewBox="0 0 68 78" fill="none" xmlns="http://www.w3.org/2000/svg">
<path d="M29.0018 3.43362C32.0958 1.6473 35.9078 1.6473 39.0018 3.43363L62.3044 16.8874C65.3985 18.6737 67.3044 21.975 67.3044 25.5476V52.4552C67.3044 56.0279 65.3985 59.3291 62.3044 61.1154L39.0018 74.5692C35.9078 76.3555 32.0958 76.3555 29.0018 74.5692L5.69921 61.1154C2.6052 59.3291 0.699219 56.0278 0.699219 52.4552V25.5476C0.699219 21.975 2.60521 18.6737 5.69922 16.8874L29.0018 3.43362Z" fill="#7AC142"/>
<path d="M39.2918 36.8564C39.2344 36.8312 38.8009 36.5851 38.157 36.5851C37.2851 36.5851 36.681 37.1626 36.681 37.9422C36.681 38.6994 37.2585 39.3 38.157 39.3C38.7911 39.3 39.2323 39.0616 39.2918 39.0301V40.3977C39.1219 40.4425 38.6604 40.5781 38.0626 40.5781C36.544 40.5781 35.2148 39.5839 35.2148 37.9422C35.2148 36.4236 36.4188 35.3098 38.0626 35.3098C38.694 35.3098 39.1624 35.4566 39.2918 35.493V36.8564Z" fill="white"/>
<path d="M25.2258 36.8564C25.1712 36.8312 24.7384 36.5851 24.0938 36.5851C23.2198 36.5851 22.6157 37.1626 22.6157 37.9422C22.6157 38.6994 23.1925 39.3 24.0938 39.3C24.7272 39.3 25.1684 39.0616 25.2258 39.0301V40.3977C25.058 40.4425 24.5972 40.5781 23.9945 40.5781C22.4794 40.5781 21.1523 39.5839 21.1523 37.9422C21.1523 36.4236 22.3549 35.3098 23.9945 35.3098C24.6329 35.3098 25.0978 35.4566 25.2258 35.493V36.8564Z" fill="white"/>
<path d="M43.5332 36.6054C42.7341 36.6054 42.1412 37.2039 42.1412 37.9422C42.1412 38.6841 42.7341 39.2818 43.5332 39.2818C44.3331 39.2818 44.9281 38.6841 44.9281 37.9422C44.9281 37.2039 44.3331 36.6054 43.5332 36.6054ZM46.3551 37.9422C46.3551 39.3979 45.1763 40.5781 43.5332 40.5781C41.8916 40.5781 40.7148 39.3979 40.7148 37.9422C40.7148 36.49 41.8916 35.3098 43.5332 35.3098C45.1763 35.3098 46.3551 36.49 46.3551 37.9422Z" fill="white"/>
<path d="M33.538 36.5558C33.5198 36.5502 32.9514 36.4012 32.485 36.4012C31.9453 36.4012 31.6516 36.5725 31.6516 36.8193C31.6516 37.1284 32.0466 37.2354 32.2676 37.3039L32.6416 37.4143C33.5156 37.68 33.9148 38.2513 33.9148 38.8707C33.9148 40.1488 32.7339 40.5781 31.7033 40.5781C30.9853 40.5781 30.3176 40.4516 30.2484 40.4397V39.2686C30.3679 39.2965 30.9322 39.458 31.5209 39.458C32.19 39.458 32.5004 39.2714 32.5004 38.9805C32.5004 38.7239 32.234 38.5771 31.8977 38.4757C31.8166 38.4505 31.6957 38.4135 31.609 38.3876C30.8594 38.1611 30.2344 37.7409 30.2344 36.9004C30.2344 35.9468 30.9818 35.3098 32.2256 35.3098C32.8808 35.3098 33.4988 35.4594 33.538 35.4699V36.5558Z" fill="white"/>
<path d="M19.7196 29.9307C19.7196 29.5811 19.4204 29.2958 19.0498 29.2958C18.6849 29.2958 18.3828 29.5811 18.3828 29.9307V31.2654C18.3828 31.6178 18.6849 31.9023 19.0498 31.9023C19.4204 31.9023 19.7196 31.6178 19.7196 31.2654V29.9307Z" fill="white"/>
<path d="M23.3929 28.1778C23.3929 27.8282 23.0937 27.5444 22.7259 27.5444C22.3553 27.5444 22.0547 27.8282 22.0547 28.1778V31.2654C22.0547 31.6185 22.3553 31.9023 22.7259 31.9023C23.0937 31.9023 23.3929 31.6185 23.3929 31.2654V28.1778Z" fill="white"/>
<path d="M27.068 25.7873C27.068 25.4349 26.7701 25.151 26.4003 25.151C26.0325 25.151 25.7305 25.4349 25.7305 25.7873V32.542C25.7305 32.8937 26.0325 33.1797 26.4003 33.1797C26.7701 33.1797 27.068 32.8937 27.068 32.542V25.7873Z" fill="white"/>
<path d="M30.7424 28.1778C30.7424 27.8282 30.4431 27.5444 30.0761 27.5444C29.7055 27.5444 29.4062 27.8282 29.4062 28.1778V31.2654C29.4062 31.6185 29.7055 31.9023 30.0761 31.9023C30.4431 31.9023 30.7424 31.6185 30.7424 31.2654V28.1778Z" fill="white"/>
<path d="M34.4129 29.9307C34.4129 29.5811 34.1157 29.2958 33.7479 29.2958C33.3788 29.2958 33.0781 29.5811 33.0781 29.9307V31.2654C33.0781 31.6178 33.3788 31.9023 33.7479 31.9023C34.1157 31.9023 34.4129 31.6178 34.4129 31.2654V29.9307Z" fill="white"/>
<path d="M38.0958 28.1778C38.0958 27.8282 37.7972 27.5444 37.428 27.5444C37.0603 27.5444 36.7617 27.8282 36.7617 28.1778V31.2654C36.7617 31.6185 37.0603 31.9023 37.428 31.9023C37.7972 31.9023 38.0958 31.6185 38.0958 31.2654V28.1778Z" fill="white"/>
<path d="M41.7761 25.7873C41.7761 25.4349 41.4797 25.151 41.1077 25.151C40.7428 25.151 40.4414 25.4349 40.4414 25.7873V32.542C40.4414 32.8937 40.7428 33.1797 41.1077 33.1797C41.4797 33.1797 41.7761 32.8937 41.7761 32.542V25.7873Z" fill="white"/>
<path d="M45.4546 28.1778C45.4546 27.8282 45.1539 27.5444 44.7764 27.5444C44.4107 27.5444 44.1094 27.8282 44.1094 28.1778V31.2654C44.1094 31.6185 44.4107 31.9023 44.7764 31.9023C45.1539 31.9023 45.4546 31.6185 45.4546 31.2654V28.1778Z" fill="white"/>
<path d="M49.1206 29.9307C49.1206 29.5811 48.8199 29.2958 48.4522 29.2958C48.083 29.2958 47.7852 29.5811 47.7852 29.9307V31.2654C47.7852 31.6178 48.083 31.9023 48.4522 31.9023C48.8199 31.9023 49.1206 31.6178 49.1206 31.2654V29.9307Z" fill="white"/>
<path d="M28.4243 40.4883H27.0742V35.4011H28.4243V40.4883Z" fill="white"/>
<path d="M18.4885 53.8008L14.7788 45.0753V53.8008H14V44.091H15.1754L18.9274 52.9921L22.4672 44.091H23.6002V53.8008H22.8357V45.1425L19.3376 53.8008H18.4885Z" fill="white"/>
<path d="M31.787 51.8834C31.4328 53.1652 30.2998 54 28.7279 54C26.732 54 25.2305 52.6933 25.2305 50.2922C25.2305 47.8916 26.6885 46.5843 28.5866 46.5843C30.4704 46.5843 31.9147 47.7976 31.9147 50.4683H26.0099C26.0809 52.463 27.2693 53.3806 28.7422 53.3806C29.8472 53.3806 30.6964 52.8128 30.9796 51.8834H31.787ZM26.0242 49.8601H31.1209C31.0226 48.066 29.9599 47.1776 28.5866 47.1776C27.2419 47.1776 26.1655 48.1064 26.0242 49.8601Z" fill="white"/>
<path d="M33.7031 53.8008V46.7879H34.3263L34.4402 48.1369C34.8361 47.0718 35.5863 46.5862 36.507 46.5862C36.804 46.5862 37.1009 46.6397 37.2715 46.6945V47.4092C37.0163 47.3407 36.7617 47.2865 36.4647 47.2865C35.3883 47.2865 34.4676 48.2857 34.4676 49.9703V53.8008H33.7031Z" fill="white"/>
<path d="M38.2396 48.6063C38.3523 47.4073 39.4716 46.5843 41.1002 46.5843C42.7431 46.5843 43.8325 47.4602 43.8325 48.8902V53.7989H43.2094L43.0967 52.6398C42.6428 53.3663 41.808 54 40.4914 54C39.0608 54 38.0273 53.2598 38.0273 52.0191C38.0273 50.8188 38.7918 50.0905 40.8587 49.7667L43.068 49.4162V48.8093C43.068 47.7976 42.3179 47.1776 41.0579 47.1776C39.8825 47.1776 39.1311 47.7559 39.0321 48.6063H38.2396ZM43.068 51.3038V49.9952L41.0859 50.3189C39.3291 50.6022 38.8198 51.1282 38.8198 51.9655C38.8198 52.9087 39.5843 53.3806 40.6893 53.3806C41.8647 53.3806 43.068 52.5314 43.068 51.3038Z" fill="white"/>
<path d="M45.7891 53.8008V44.091H46.5535V49.646L50.0796 46.7879H51.1136L47.3317 49.8501L51.5799 53.8008H50.5471L46.5535 50.0923V53.8008H45.7891Z" fill="white"/>
<path d="M52.543 44.0871H53.4637V45.0844H52.543V44.0871ZM52.6127 46.784H53.3772V53.7969H52.6127V46.784Z" fill="white"/>
</svg>
