<svg width="17" height="13" viewBox="0 0 17 13" fill="none"
    xmlns="http://www.w3.org/2000/svg">
    <path d="M11.2524 5.47771C11.2291 5.4675 11.0532 5.3676 10.7918 5.3676C10.4379 5.3676 10.1927 5.60201 10.1927 5.91842C10.1927 6.22576 10.4271 6.46953 10.7918 6.46953C11.0492 6.46953 11.2283 6.37276 11.2524 6.35999V6.91507C11.1834 6.93323 10.9961 6.98828 10.7535 6.98828C10.1371 6.98828 9.59766 6.58474 9.59766 5.91842C9.59766 5.30205 10.0863 4.84999 10.7535 4.84999C11.0098 4.84999 11.1999 4.90958 11.2524 4.92434V5.47771Z" fill="#919295"/>
    <path d="M5.54394 5.47771C5.5218 5.4675 5.34614 5.3676 5.08449 5.3676C4.72977 5.3676 4.48458 5.60201 4.48458 5.91842C4.48458 6.22576 4.7187 6.46953 5.08449 6.46953C5.3416 6.46953 5.52067 6.37276 5.54394 6.35999V6.91507C5.47583 6.93323 5.28882 6.98828 5.0442 6.98828C4.42924 6.98828 3.89062 6.58474 3.89062 5.91842C3.89062 5.30205 4.37873 4.84999 5.0442 4.84999C5.30329 4.84999 5.492 4.90958 5.54394 4.92434V5.47771Z" fill="#919295"/>
    <path d="M12.972 5.37583C12.6477 5.37583 12.407 5.61875 12.407 5.91842C12.407 6.21952 12.6477 6.46215 12.972 6.46215C13.2967 6.46215 13.5382 6.21952 13.5382 5.91842C13.5382 5.61875 13.2967 5.37583 12.972 5.37583ZM14.1174 5.91842C14.1174 6.50926 13.6389 6.98828 12.972 6.98828C12.3057 6.98828 11.8281 6.50926 11.8281 5.91842C11.8281 5.32901 12.3057 4.84999 12.972 4.84999C13.6389 4.84999 14.1174 5.32901 14.1174 5.91842Z" fill="#919295"/>
    <path d="M8.9229 5.35569C8.91552 5.35342 8.68481 5.29297 8.49552 5.29297C8.27644 5.29297 8.15726 5.3625 8.15726 5.46267C8.15726 5.5881 8.31759 5.63152 8.40727 5.65933L8.55909 5.70417C8.91382 5.81201 9.07586 6.04386 9.07586 6.29529C9.07586 6.81404 8.59655 6.98828 8.17826 6.98828C7.88681 6.98828 7.6158 6.93692 7.58771 6.93209V6.45676C7.63623 6.46811 7.86525 6.53366 8.10419 6.53366C8.37577 6.53366 8.50177 6.45789 8.50177 6.33984C8.50177 6.23569 8.39365 6.1761 8.25715 6.13495C8.22423 6.12473 8.17513 6.10969 8.13995 6.09919C7.83573 6.00725 7.58203 5.8367 7.58203 5.49559C7.58203 5.10851 7.88539 4.84999 8.39024 4.84999C8.65614 4.84999 8.90701 4.91072 8.9229 4.91497V5.35569Z" fill="#919295"/>
    <path d="M3.30822 2.66458C3.30822 2.52269 3.18676 2.40691 3.03635 2.40691C2.88822 2.40691 2.76562 2.52269 2.76562 2.66458V3.20632C2.76562 3.34934 2.88822 3.46484 3.03635 3.46484C3.18676 3.46484 3.30822 3.34934 3.30822 3.20632V2.66458Z" fill="#919295"/>
    <path d="M4.79316 1.95314C4.79316 1.81125 4.6717 1.69603 4.52243 1.69603C4.37203 1.69603 4.25 1.81125 4.25 1.95314V3.20632C4.25 3.34963 4.37203 3.46484 4.52243 3.46484C4.6717 3.46484 4.79316 3.34963 4.79316 3.20632V1.95314Z" fill="#919295"/>
    <path d="M6.29287 0.987858C6.29287 0.844832 6.17198 0.729617 6.02186 0.729617C5.87259 0.729617 5.75 0.844832 5.75 0.987858V3.72947C5.75 3.87221 5.87259 3.98828 6.02186 3.98828C6.17198 3.98828 6.29287 3.87221 6.29287 3.72947V0.987858Z" fill="#919295"/>
    <path d="M7.77668 1.95314C7.77668 1.81125 7.65522 1.69603 7.50624 1.69603C7.35583 1.69603 7.23438 1.81125 7.23438 1.95314V3.20632C7.23438 3.34963 7.35583 3.46484 7.50624 3.46484C7.65522 3.46484 7.77668 3.34963 7.77668 3.20632V1.95314Z" fill="#919295"/>
    <path d="M9.2683 2.66458C9.2683 2.52269 9.14769 2.40691 8.99843 2.40691C8.84859 2.40691 8.72656 2.52269 8.72656 2.66458V3.20632C8.72656 3.34934 8.84859 3.46484 8.99843 3.46484C9.14769 3.46484 9.2683 3.34934 9.2683 3.20632V2.66458Z" fill="#919295"/>
    <path d="M10.768 1.95314C10.768 1.81125 10.6468 1.69603 10.497 1.69603C10.3477 1.69603 10.2266 1.81125 10.2266 1.95314V3.20632C10.2266 3.34963 10.3477 3.46484 10.497 3.46484C10.6468 3.46484 10.768 3.34963 10.768 3.20632V1.95314Z" fill="#919295"/>
    <path d="M12.2605 0.987858C12.2605 0.844832 12.1402 0.729617 11.9892 0.729617C11.8411 0.729617 11.7188 0.844832 11.7188 0.987858V3.72947C11.7188 3.87221 11.8411 3.98828 11.9892 3.98828C12.1402 3.98828 12.2605 3.87221 12.2605 3.72947V0.987858Z" fill="#919295"/>
    <path d="M13.7491 1.95314C13.7491 1.81125 13.6271 1.69603 13.4739 1.69603C13.3254 1.69603 13.2031 1.81125 13.2031 1.95314V3.20632C13.2031 3.34963 13.3254 3.46484 13.4739 3.46484C13.6271 3.46484 13.7491 3.34963 13.7491 3.20632V1.95314Z" fill="#919295"/>
    <path d="M15.2373 2.66458C15.2373 2.52269 15.1153 2.40691 14.966 2.40691C14.8162 2.40691 14.6953 2.52269 14.6953 2.66458V3.20632C14.6953 3.34934 14.8162 3.46484 14.966 3.46484C15.1153 3.46484 15.2373 3.34934 15.2373 3.20632V2.66458Z" fill="#919295"/>
    <path d="M6.83704 6.94531H6.28906V4.88052H6.83704V6.94531Z" fill="#919295"/>
    <path d="M2.79835 12.3516L1.29266 8.81006V12.3516H0.976562V8.41058H1.45361L2.97649 12.0233L4.4132 8.41058H4.87307V12.3516H4.56278V8.83735L3.143 12.3516H2.79835Z" fill="#7AC142"/>
    <path d="M8.20024 11.5706C8.05647 12.0908 7.5966 12.4297 6.95859 12.4297C6.14852 12.4297 5.53906 11.8993 5.53906 10.9248C5.53906 9.95044 6.13083 9.41982 6.90124 9.41982C7.66583 9.41982 8.25204 9.91228 8.25204 10.9963H5.85541C5.88422 11.8058 6.36657 12.1783 6.9644 12.1783C7.4129 12.1783 7.75755 11.9478 7.87252 11.5706H8.20024ZM5.86122 10.7494H7.92988C7.88995 10.0212 7.45864 9.66062 6.90124 9.66062C6.35546 9.66062 5.91858 10.0376 5.86122 10.7494Z" fill="#7AC142"/>
    <path d="M8.97656 12.3516V9.50517H9.22949L9.27573 10.0527C9.43643 9.62039 9.74091 9.42331 10.1146 9.42331C10.2351 9.42331 10.3557 9.44504 10.4249 9.46727V9.75734C10.3213 9.72955 10.218 9.70757 10.0974 9.70757C9.66055 9.70757 9.28685 10.1131 9.28685 10.7969V12.3516H8.97656Z" fill="#7AC142"/>
    <path d="M10.8166 10.2405C10.8624 9.75386 11.3167 9.41982 11.9777 9.41982C12.6445 9.41982 13.0867 9.77533 13.0867 10.3557V12.3481H12.8337L12.788 11.8776C12.6038 12.1725 12.265 12.4297 11.7306 12.4297C11.1499 12.4297 10.7305 12.1293 10.7305 11.6257C10.7305 11.1385 11.0408 10.8429 11.8796 10.7115L12.7764 10.5692V10.3229C12.7764 9.91228 12.4719 9.66062 11.9605 9.66062C11.4834 9.66062 11.1785 9.89535 11.1383 10.2405H10.8166ZM12.7764 11.3354V10.8042L11.9719 10.9356C11.2588 11.0506 11.0521 11.2641 11.0521 11.6039C11.0521 11.9867 11.3624 12.1783 11.8109 12.1783C12.288 12.1783 12.7764 11.8336 12.7764 11.3354Z" fill="#7AC142"/>
    <path d="M13.8828 12.3516V8.41058H14.1931V10.6652L15.6243 9.50517H16.0439L14.5089 10.7481L16.2332 12.3516H15.814L14.1931 10.8464V12.3516H13.8828Z" fill="#7AC142"/>
    <path d="M16.625 8.40668H16.9987V8.81146H16.625V8.40668ZM16.6533 9.50127H16.9636V12.3477H16.6533V9.50127Z" fill="#7AC142"/>
</svg>
