<svg width="38" height="38" viewBox="0 0 38 38" fill="none"
    xmlns="http://www.w3.org/2000/svg">
    <path d="M23.1336 16.8486C23.1336 17.6525 23.1168 18.4563 23.1336 19.2601C23.1504 19.6285 23.016 19.9467 22.8481 20.2481C22.2769 21.3366 21.4035 22.1237 20.446 22.827C19.9421 23.1955 19.4046 23.5304 18.8503 23.8151C18.7495 23.8653 18.6655 23.9156 18.548 23.8486C17.0698 23.0615 15.7092 22.1237 14.735 20.7003C14.3654 20.1644 14.1639 19.6118 14.1807 18.9419C14.2143 17.4013 14.1975 15.8439 14.1807 14.3032C14.1807 14.0688 14.2646 13.9516 14.4662 13.8678C17.2546 12.7961 20.0597 12.7793 22.8481 13.8846C23.0496 13.9683 23.1168 14.052 23.1168 14.2697C23.1336 15.1238 23.1336 15.9946 23.1336 16.8486Z" fill="#FFC900"/>
    <path d="M18.6483 26.0816C18.5397 26.0816 18.4312 26.0635 18.3046 25.9912C16.6768 25.123 14.6148 23.875 13.1678 21.7949C12.6071 20.981 12.3539 20.1852 12.372 19.2627C12.4082 17.4902 12.4082 15.6814 12.3901 13.927V13.2758C12.3901 12.7875 12.589 12.48 13.0412 12.3172C16.7853 10.8883 20.5836 10.8883 24.3096 12.3353C24.7437 12.4981 24.9245 12.7875 24.9245 13.2397C24.9064 14.0536 24.9064 14.8675 24.9245 15.6814C24.9245 15.9889 24.9245 16.2964 24.9245 16.5858C24.9245 16.8933 24.9245 17.1827 24.9245 17.4902C24.9245 18.2137 24.9245 18.9552 24.9426 19.6968C24.9607 20.2756 24.7437 20.764 24.5266 21.1981C23.6946 22.7716 22.4104 23.8388 21.2528 24.6708C20.6017 25.1411 19.8782 25.5932 19.1004 25.9731C18.9919 25.9912 18.8291 26.0816 18.6483 26.0816ZM13.2402 13.1311C13.2402 13.1311 13.2221 13.1673 13.2221 13.2578V13.9089C13.2402 15.6634 13.2583 17.4902 13.204 19.2808C13.1859 20.0043 13.3849 20.6554 13.8371 21.3066C15.1574 23.2238 17.0928 24.4176 18.6302 25.2315C18.6483 25.2315 18.6663 25.2134 18.6844 25.2134C19.4079 24.8517 20.0952 24.4357 20.7283 23.9835C21.7954 23.2057 23.0073 22.229 23.7489 20.782C23.9478 20.3841 24.0744 20.0766 24.0744 19.6968C24.0563 18.9552 24.0563 18.1956 24.0563 17.4721C24.0563 17.1646 24.0563 16.8752 24.0563 16.5677C24.0563 16.2602 24.0563 15.9708 24.0563 15.6634C24.0563 14.8675 24.0563 14.0355 24.0563 13.2216C24.0563 13.1854 24.0563 13.1673 24.0563 13.1492C24.0383 13.1492 24.0202 13.1311 23.984 13.1131C20.457 11.7565 16.8576 11.7384 13.3125 13.095C13.2583 13.1131 13.2402 13.1311 13.2402 13.1311Z" fill="#0B1F35"/>
    <path d="M18.6479 0C8.35629 0 0 8.3563 0 18.6479C0 28.9576 8.35629 37.2958 18.6479 37.2958C28.9395 37.2958 37.2958 28.9396 37.2958 18.6479C37.3139 8.3563 28.9576 0 18.6479 0ZM18.6479 31.8154C11.3769 31.8154 5.49851 25.919 5.49851 18.666C5.49851 11.3949 11.3949 5.5166 18.6479 5.5166C25.9009 5.5166 31.7973 11.413 31.7973 18.666C31.8154 25.919 25.919 31.8154 18.6479 31.8154Z" fill="#327DF4"/>
</svg>
