<svg width="50" height="73" viewBox="0 0 50 73" fill="none"
    xmlns="http://www.w3.org/2000/svg">
    <rect x="24.2313" y="48.7898" width="1.41446" height="24.0663" rx="0.707228" fill="#F9A825"/>
    <ellipse cx="24.9368" cy="25.4316" rx="24.753" ry="24.7741" fill="#F9A825"/>
    <g clip-path="url(#clip0)">
        <path d="M18.6781 23.3007C18.6781 23.6212 18.712 23.881 18.7713 24.0715C18.839 24.262 18.9237 24.4698 19.0422 24.695C19.0845 24.7643 19.1015 24.8336 19.1015 24.8942C19.1015 24.9808 19.0507 25.0674 18.9406 25.154L18.4072 25.5177C18.331 25.5697 18.2548 25.5956 18.187 25.5956C18.1024 25.5956 18.0177 25.5523 17.933 25.4744C17.8145 25.3445 17.7129 25.2059 17.6282 25.0674C17.5435 24.9202 17.4589 24.7556 17.3657 24.5564C16.7053 25.3532 15.8755 25.7515 14.8764 25.7515C14.1652 25.7515 13.5979 25.5437 13.183 25.128C12.7682 24.7123 12.5565 24.1581 12.5565 23.4653C12.5565 22.7292 12.8105 22.1316 13.327 21.6813C13.8435 21.231 14.5293 21.0058 15.4014 21.0058C15.6893 21.0058 15.9856 21.0318 16.2989 21.0751C16.6122 21.1184 16.9339 21.1877 17.2726 21.2656V20.6335C17.2726 19.9753 17.1371 19.5163 16.8747 19.2479C16.6037 18.9794 16.1465 18.8495 15.4945 18.8495C15.1982 18.8495 14.8934 18.8841 14.5801 18.9621C14.2668 19.04 13.962 19.1353 13.6657 19.2565C13.5302 19.3171 13.4286 19.3518 13.3693 19.3691C13.3101 19.3864 13.2677 19.3951 13.2339 19.3951C13.1153 19.3951 13.056 19.3085 13.056 19.1266V18.7023C13.056 18.5637 13.073 18.4598 13.1153 18.3992C13.1576 18.3386 13.2339 18.2779 13.3524 18.2173C13.6487 18.0614 14.0043 17.9315 14.4192 17.8276C14.8341 17.715 15.2744 17.6631 15.7401 17.6631C16.7476 17.6631 17.4843 17.8969 17.9584 18.3645C18.4241 18.8322 18.6612 19.5423 18.6612 20.4949V23.3007H18.6781ZM15.2405 24.6171C15.5199 24.6171 15.8078 24.5651 16.1126 24.4612C16.4174 24.3573 16.6884 24.1667 16.917 23.9069C17.0525 23.7424 17.1541 23.5605 17.2049 23.3527C17.2557 23.1449 17.2895 22.8937 17.2895 22.5993V22.2356C17.044 22.1749 16.7815 22.123 16.5106 22.0883C16.2396 22.0537 15.9772 22.0364 15.7147 22.0364C15.1474 22.0364 14.7325 22.149 14.4531 22.3828C14.1737 22.6166 14.0382 22.9457 14.0382 23.3787C14.0382 23.7857 14.1398 24.0888 14.3515 24.2966C14.5547 24.5131 14.851 24.6171 15.2405 24.6171ZM22.0395 25.5523C21.8871 25.5523 21.7855 25.5264 21.7178 25.4657C21.65 25.4138 21.5908 25.2925 21.54 25.128L19.5502 18.4338C19.4994 18.2606 19.474 18.148 19.474 18.0874C19.474 17.9489 19.5417 17.8709 19.6772 17.8709H20.507C20.6679 17.8709 20.7779 17.8969 20.8372 17.9575C20.9049 18.0095 20.9557 18.1307 21.0065 18.2953L22.429 24.0282L23.7498 18.2953C23.7922 18.1221 23.843 18.0095 23.9107 17.9575C23.9784 17.9056 24.097 17.8709 24.2494 17.8709H24.9267C25.0876 17.8709 25.1977 17.8969 25.2654 17.9575C25.3332 18.0095 25.3924 18.1307 25.4263 18.2953L26.7641 24.0975L28.2289 18.2953C28.2797 18.1221 28.3389 18.0095 28.3982 17.9575C28.4659 17.9056 28.576 17.8709 28.7284 17.8709H29.5158C29.6513 17.8709 29.7275 17.9402 29.7275 18.0874C29.7275 18.1307 29.7191 18.174 29.7106 18.226C29.7021 18.2779 29.6852 18.3472 29.6513 18.4425L27.6108 25.1367C27.56 25.3099 27.5007 25.4224 27.433 25.4744C27.3652 25.5264 27.2552 25.561 27.1112 25.561H26.3831C26.2222 25.561 26.1121 25.535 26.0444 25.4744C25.9767 25.4138 25.9174 25.3012 25.8835 25.128L24.5711 19.5423L23.2672 25.1193C23.2249 25.2925 23.1741 25.4051 23.1063 25.4657C23.0386 25.5264 22.9201 25.5523 22.7677 25.5523H22.0395ZM32.9196 25.7862C32.4793 25.7862 32.039 25.7342 31.6157 25.6303C31.1923 25.5264 30.8621 25.4138 30.642 25.2839C30.5065 25.2059 30.4133 25.1193 30.3795 25.0414C30.3456 24.9635 30.3287 24.8769 30.3287 24.7989V24.3573C30.3287 24.1754 30.3964 24.0888 30.5234 24.0888C30.5742 24.0888 30.625 24.0975 30.6758 24.1148C30.7266 24.1321 30.8028 24.1667 30.8875 24.2014C31.1754 24.3313 31.4887 24.4352 31.8189 24.5045C32.1575 24.5738 32.4878 24.6084 32.8264 24.6084C33.3599 24.6084 33.7747 24.5131 34.0626 24.3226C34.3505 24.1321 34.5029 23.855 34.5029 23.4999C34.5029 23.2574 34.4267 23.0583 34.2743 22.8937C34.1219 22.7292 33.834 22.582 33.4191 22.4434L32.1914 22.0537C31.5733 21.8545 31.1161 21.5601 30.8367 21.1704C30.5573 20.7893 30.4133 20.365 30.4133 19.9147C30.4133 19.551 30.4896 19.2305 30.642 18.9534C30.7944 18.6763 30.9976 18.4338 31.2516 18.2433C31.5056 18.0441 31.7935 17.8969 32.1321 17.793C32.4708 17.6891 32.8264 17.6458 33.199 17.6458C33.3853 17.6458 33.58 17.6544 33.7663 17.6804C33.961 17.7064 34.1388 17.741 34.3166 17.7757C34.486 17.819 34.6468 17.8623 34.7992 17.9142C34.9516 17.9662 35.0702 18.0181 35.1549 18.0701C35.2734 18.1394 35.3581 18.2087 35.4089 18.2866C35.4597 18.3559 35.4851 18.4511 35.4851 18.5724V18.9794C35.4851 19.1613 35.4173 19.2565 35.2903 19.2565C35.2226 19.2565 35.1125 19.2219 34.9686 19.1526C34.486 18.9274 33.9441 18.8149 33.3429 18.8149C32.8603 18.8149 32.4793 18.8928 32.2168 19.0573C31.9543 19.2219 31.8189 19.473 31.8189 19.8281C31.8189 20.0706 31.9035 20.2784 32.0729 20.4429C32.2422 20.6075 32.5555 20.772 33.0042 20.9192L34.2066 21.3089C34.8162 21.5081 35.2565 21.7852 35.5189 22.1403C35.7814 22.4954 35.9084 22.9024 35.9084 23.3527C35.9084 23.7251 35.8322 24.0628 35.6883 24.3573C35.5359 24.6517 35.3327 24.9115 35.0702 25.1193C34.8077 25.3358 34.4944 25.4917 34.1304 25.6043C33.7493 25.7255 33.3514 25.7862 32.9196 25.7862Z" fill="white"/>
        <path d="M34.5208 29.9941C31.7352 32.0985 27.688 33.2156 24.208 33.2156C19.3311 33.2156 14.9367 31.371 11.6176 28.3054C11.3552 28.0629 11.5922 27.7338 11.9055 27.9243C15.4955 30.0547 19.9237 31.345 24.5044 31.345C27.5948 31.345 30.9901 30.6869 34.1144 29.3359C34.5801 29.1194 34.978 29.6477 34.5208 29.9941Z" fill="white"/>
        <path d="M35.6819 28.6438C35.3263 28.1762 33.3281 28.4186 32.4221 28.5312C32.1512 28.5659 32.1088 28.3234 32.3544 28.1415C33.9461 26.9984 36.5624 27.3275 36.8672 27.7085C37.1721 28.0982 36.7826 30.7742 35.2924 32.0558C35.0638 32.255 34.8436 32.1511 34.9452 31.8913C35.2839 31.034 36.0375 29.1028 35.6819 28.6438Z" fill="white"/>
    </g>
    <defs>
        <clipPath id="clip0">
            <rect width="25.4602" height="15.5723" fill="white" transform="translate(11.5049 17.6448)"/>
        </clipPath>
    </defs>
</svg>
