<svg width="51" height="73" viewBox="0 0 51 73" fill="none"
    xmlns="http://www.w3.org/2000/svg">
    <rect x="24.8513" y="48.8982" width="1.41446" height="24.0663" rx="0.707228" fill="#437FEC"/>
    <ellipse cx="25.5645" cy="25.54" rx="24.753" ry="24.7741" fill="#437FEC"/>
    <g clip-path="url(#clip0)">
        <path d="M19.3766 33.8711H17.945V28.1792H19.3766V33.8711Z" fill="white"/>
        <path d="M30.9204 29.8111C30.8615 29.781 30.4007 29.5072 29.716 29.5072C28.7904 29.5072 28.1482 30.1532 28.1482 31.0253C28.1482 31.8711 28.7627 32.5449 29.716 32.5449C30.3889 32.5449 30.8574 32.2764 30.9204 32.2428V33.7705C30.7409 33.8205 30.2515 33.9729 29.6157 33.9729C28.0054 33.9729 26.5918 32.8592 26.5918 31.0249C26.5918 29.3256 27.8707 28.0791 29.6157 28.0791C30.2869 28.0791 30.7848 28.2429 30.9204 28.2834V29.8111ZM15.9765 29.8111C15.9189 29.781 15.4586 29.5072 14.7738 29.5072C13.8464 29.5072 13.2047 30.1532 13.2047 31.0253C13.2047 31.8711 13.8197 32.5449 14.7738 32.5449C15.4468 32.5449 15.9148 32.2764 15.9765 32.2428V33.7705C15.7987 33.8205 15.3098 33.9729 14.6704 33.9729C13.0614 33.9729 11.6497 32.8592 11.6497 31.0249C11.6497 29.3256 12.9286 28.0791 14.6709 28.0791C15.3448 28.0791 15.8418 28.2429 15.9765 28.2834V29.8111ZM35.4241 29.5286C34.5747 29.5286 33.9439 30.1991 33.9439 31.0253C33.9439 31.8533 34.5747 32.5235 35.4241 32.5235C36.2726 32.5235 36.9052 31.8533 36.9052 31.0253C36.9052 30.1991 36.2726 29.5286 35.4241 29.5286ZM38.4221 31.0253C38.4221 32.6536 37.1691 33.9729 35.4245 33.9729C33.679 33.9729 32.4279 32.6536 32.4279 31.0249C32.4279 29.3998 33.6795 28.0791 35.4241 28.0791C37.1691 28.0791 38.4221 29.3998 38.4221 31.0253ZM24.8055 29.474C24.7842 29.4671 24.1815 29.3002 23.6863 29.3002C23.1126 29.3002 22.8006 29.4931 22.8006 29.7665C22.8006 30.1132 23.2215 30.2342 23.4569 30.3088L23.8518 30.4348C24.7815 30.7314 25.2046 31.3697 25.2046 32.0631C25.2046 33.493 23.9512 33.9734 22.8555 33.9734C22.0941 33.9734 21.3808 33.8324 21.3105 33.8178V32.5075C21.4365 32.5394 22.037 32.7196 22.6623 32.7196C23.3748 32.7196 23.7022 32.5103 23.7022 32.1882C23.7022 31.8998 23.4188 31.7332 23.0637 31.6213C22.9775 31.5922 22.8469 31.5512 22.758 31.5221C21.9608 31.2692 21.296 30.7988 21.296 29.857C21.296 28.7924 22.0905 28.0777 23.4101 28.0777C24.1072 28.0777 24.7629 28.2474 24.8055 28.2588V29.4735V29.474Z" fill="white"/>
        <path d="M10.1317 22.0631C10.1317 21.6709 9.8124 21.3529 9.42103 21.3529C9.02967 21.3529 8.70996 21.6709 8.70996 22.0626V23.5571C8.71464 23.7432 8.79159 23.92 8.92439 24.0499C9.05719 24.1798 9.23533 24.2525 9.42081 24.2525C9.60629 24.2525 9.78443 24.1798 9.91723 24.0499C10.05 23.92 10.127 23.7432 10.1317 23.5571V22.0631ZM14.0358 20.1023C14.0358 19.9131 13.9609 19.7317 13.8276 19.598C13.6943 19.4643 13.5135 19.3891 13.3249 19.3891C13.1364 19.3891 12.9556 19.4643 12.8223 19.598C12.689 19.7317 12.6141 19.9131 12.6141 20.1023V23.5571C12.6141 23.7463 12.689 23.9277 12.8223 24.0614C12.9556 24.1951 13.1364 24.2703 13.3249 24.2703C13.5135 24.2703 13.6943 24.1951 13.8276 24.0614C13.9609 23.9277 14.0358 23.7463 14.0358 23.5571V20.1018V20.1023ZM17.9404 17.419C17.9404 17.0268 17.6211 16.7083 17.2297 16.7083C16.8379 16.7083 16.5187 17.0268 16.5187 17.419V24.977C16.5233 25.163 16.6003 25.3399 16.7331 25.4698C16.8659 25.5997 17.044 25.6724 17.2295 25.6724C17.415 25.6724 17.5931 25.5997 17.7259 25.4698C17.8587 25.3399 17.9357 25.163 17.9404 24.977V17.419ZM21.8445 20.1023C21.8445 19.9131 21.7696 19.7317 21.6363 19.598C21.503 19.4643 21.3222 19.3891 21.1336 19.3891C20.9451 19.3891 20.7643 19.4643 20.631 19.598C20.4977 19.7317 20.4228 19.9131 20.4228 20.1023V23.5571C20.4228 23.7463 20.4977 23.9277 20.631 24.0614C20.7643 24.1951 20.9451 24.2703 21.1336 24.2703C21.3222 24.2703 21.503 24.1951 21.6363 24.0614C21.7696 23.9277 21.8445 23.7463 21.8445 23.5571V20.1018V20.1023ZM25.7445 22.0631C25.7446 21.8749 25.6703 21.6944 25.5378 21.5613C25.4053 21.4281 25.2255 21.3531 25.038 21.3529C24.85 21.3528 24.6697 21.4274 24.5365 21.5605C24.4033 21.6935 24.3281 21.8741 24.3273 22.0626V23.5571C24.3273 23.7457 24.402 23.9265 24.5349 24.0598C24.6678 24.1931 24.848 24.268 25.0359 24.268C25.2239 24.268 25.4041 24.1931 25.537 24.0598C25.6699 23.9265 25.7445 23.7457 25.7445 23.5571V22.0631ZM29.6505 20.1023C29.6458 19.9168 29.5691 19.7406 29.4367 19.6111C29.3043 19.4816 29.1268 19.4091 28.9419 19.4091C28.757 19.4091 28.5794 19.4816 28.447 19.6111C28.3147 19.7406 28.238 19.9168 28.2333 20.1023V23.5571C28.2333 23.7457 28.3079 23.9265 28.4408 24.0598C28.5737 24.1931 28.7539 24.268 28.9419 24.268C29.1298 24.268 29.31 24.1931 29.4429 24.0598C29.5758 23.9265 29.6505 23.7457 29.6505 23.5571V20.1018V20.1023ZM33.5573 17.419C33.5573 17.2304 33.4826 17.0496 33.3498 16.9163C33.2169 16.783 33.0366 16.7081 32.8487 16.7081C32.6608 16.7081 32.4805 16.783 32.3477 16.9163C32.2148 17.0496 32.1401 17.2304 32.1401 17.419V24.977C32.1359 25.073 32.1512 25.1688 32.1849 25.2587C32.2186 25.3486 32.2701 25.4308 32.3363 25.5002C32.4025 25.5696 32.4821 25.6248 32.5701 25.6625C32.6582 25.7003 32.753 25.7197 32.8487 25.7197C32.9445 25.7197 33.0392 25.7003 33.1273 25.6625C33.2154 25.6248 33.2949 25.5696 33.3611 25.5002C33.4273 25.4308 33.4788 25.3486 33.5125 25.2587C33.5463 25.1688 33.5615 25.073 33.5573 24.977V17.419ZM37.4632 20.1023C37.4632 19.7096 37.1462 19.3907 36.7458 19.3907C36.5579 19.3908 36.3777 19.4658 36.2449 19.5991C36.1121 19.7325 36.0374 19.9133 36.0374 20.1018V23.5571C36.0374 23.9516 36.3549 24.2696 36.7458 24.2696C37.1462 24.2696 37.4632 23.9516 37.4632 23.5571V20.1018V20.1023ZM41.3619 22.0631C41.3619 21.8744 41.2872 21.6934 41.1542 21.5599C41.0212 21.4265 40.8407 21.3515 40.6526 21.3515C40.4645 21.3515 40.2841 21.4265 40.1511 21.5599C40.0181 21.6934 39.9434 21.8744 39.9434 22.0631V23.5571C39.9434 23.9516 40.2613 24.27 40.6526 24.27C41.0436 24.27 41.3615 23.9516 41.3615 23.5571V22.0631H41.3619Z" fill="white"/>
        <path d="M40.5429 33.1223V33.2115H40.2898V33.8716H40.1855V33.2119H39.9316V33.1223H40.5429ZM40.5959 33.1223H40.7587L40.9823 33.7369H40.9859L41.2022 33.1228H41.3619V33.8716H41.2553V33.2574H41.2517L41.0249 33.8716H40.9265L40.7052 33.2574H40.7002V33.8716H40.5959V33.1223Z" fill="white"/>
    </g>
    <defs>
        <clipPath id="clip0">
            <rect width="35" height="20" fill="white" transform="translate(8 16.0002)"/>
        </clipPath>
    </defs>
</svg>
