<svg width="30" height="30" viewBox="0 0 30 30" fill="none" xmlns="http://www.w3.org/2000/svg">
<path d="M0 15C0 6.71573 6.71573 0 15 0C23.2843 0 30 6.71573 30 15C30 23.2843 23.2843 30 15 30C6.71573 30 0 23.2843 0 15Z" fill="#F69442"/>
<path d="M17.324 13.2927C17.297 13.2809 17.0928 13.165 16.7895 13.165C16.3788 13.165 16.0942 13.437 16.0942 13.8042C16.0942 14.1609 16.3663 14.4438 16.7895 14.4438C17.0882 14.4438 17.296 14.3315 17.324 14.3167V14.9609C17.244 14.982 17.0266 15.0459 16.745 15.0459C16.0297 15.0459 15.4036 14.5776 15.4036 13.8042C15.4036 13.0889 15.9707 12.5642 16.745 12.5642C17.0424 12.5642 17.2631 12.6334 17.324 12.6505V13.2927Z" fill="white"/>
<path d="M10.6981 13.2927C10.6724 13.2809 10.4686 13.165 10.1649 13.165C9.7532 13.165 9.46864 13.437 9.46864 13.8042C9.46864 14.1609 9.74035 14.4438 10.1649 14.4438C10.4633 14.4438 10.6711 14.3315 10.6981 14.3167V14.9609C10.6191 14.982 10.402 15.0459 10.1181 15.0459C9.40441 15.0459 8.7793 14.5776 8.7793 13.8042C8.7793 13.0889 9.34579 12.5642 10.1181 12.5642C10.4188 12.5642 10.6378 12.6334 10.6981 12.6505V13.2927Z" fill="white"/>
<path d="M19.3205 13.1745C18.9441 13.1745 18.6648 13.4564 18.6648 13.8042C18.6648 14.1537 18.9441 14.4353 19.3205 14.4353C19.6973 14.4353 19.9776 14.1537 19.9776 13.8042C19.9776 13.4564 19.6973 13.1745 19.3205 13.1745ZM20.6498 13.8042C20.6498 14.4899 20.0945 15.0459 19.3205 15.0459C18.5472 15.0459 17.9929 14.4899 17.9929 13.8042C17.9929 13.1202 18.5472 12.5642 19.3205 12.5642C20.0945 12.5642 20.6498 13.1202 20.6498 13.8042Z" fill="white"/>
<path d="M14.6119 13.1511C14.6033 13.1485 14.3355 13.0783 14.1159 13.0783C13.8616 13.0783 13.7233 13.159 13.7233 13.2753C13.7233 13.4209 13.9094 13.4713 14.0134 13.5035L14.1896 13.5556C14.6013 13.6807 14.7894 13.9498 14.7894 14.2416C14.7894 14.8437 14.2331 15.0459 13.7476 15.0459C13.4094 15.0459 13.0949 14.9863 13.0623 14.9807V14.429C13.1186 14.4422 13.3844 14.5183 13.6617 14.5183C13.9769 14.5183 14.1231 14.4303 14.1231 14.2933C14.1231 14.1725 13.9976 14.1033 13.8392 14.0555C13.801 14.0437 13.744 14.0262 13.7032 14.014C13.3501 13.9073 13.0557 13.7094 13.0557 13.3135C13.0557 12.8643 13.4077 12.5642 13.9937 12.5642C14.3023 12.5642 14.5934 12.6347 14.6119 12.6396V13.1511Z" fill="white"/>
<path d="M8.10311 10.0307C8.10311 9.86602 7.96215 9.73164 7.78759 9.73164C7.61567 9.73164 7.47339 9.86602 7.47339 10.0307V10.6594C7.47339 10.8254 7.61567 10.9595 7.78759 10.9595C7.96215 10.9595 8.10311 10.8254 8.10311 10.6594V10.0307Z" fill="white"/>
<path d="M9.834 9.205C9.834 9.04032 9.69303 8.90661 9.51979 8.90661C9.34524 8.90661 9.20361 9.04032 9.20361 9.205V10.6594C9.20361 10.8258 9.34524 10.9595 9.51979 10.9595C9.69303 10.9595 9.834 10.8258 9.834 10.6594V9.205Z" fill="white"/>
<path d="M11.5658 8.07779C11.5658 7.9118 11.4255 7.77808 11.2513 7.77808C11.0781 7.77808 10.9358 7.9118 10.9358 8.07779V11.2597C10.9358 11.4254 11.0781 11.5601 11.2513 11.5601C11.4255 11.5601 11.5658 11.4254 11.5658 11.2597V8.07779Z" fill="white"/>
<path d="M13.2969 9.205C13.2969 9.04032 13.1559 8.90661 12.983 8.90661C12.8084 8.90661 12.6675 9.04032 12.6675 9.205V10.6594C12.6675 10.8258 12.8084 10.9595 12.983 10.9595C13.1559 10.9595 13.2969 10.8258 13.2969 10.6594V9.205Z" fill="white"/>
<path d="M15.0252 10.0307C15.0252 9.86602 14.8852 9.73164 14.712 9.73164C14.5381 9.73164 14.3965 9.86602 14.3965 10.0307V10.6594C14.3965 10.8254 14.5381 10.9595 14.712 10.9595C14.8852 10.9595 15.0252 10.8254 15.0252 10.6594V10.0307Z" fill="white"/>
<path d="M16.7612 9.205C16.7612 9.04032 16.6206 8.90661 16.4467 8.90661C16.2734 8.90661 16.1328 9.04032 16.1328 9.205V10.6594C16.1328 10.8258 16.2734 10.9595 16.4467 10.9595C16.6206 10.9595 16.7612 10.8258 16.7612 10.6594V9.205Z" fill="white"/>
<path d="M18.4923 8.07779C18.4923 7.9118 18.3526 7.77808 18.1774 7.77808C18.0055 7.77808 17.8635 7.9118 17.8635 8.07779V11.2597C17.8635 11.4254 18.0055 11.5601 18.1774 11.5601C18.3526 11.5601 18.4923 11.4254 18.4923 11.2597V8.07779Z" fill="white"/>
<path d="M20.2247 9.205C20.2247 9.04032 20.0831 8.90661 19.9053 8.90661C19.733 8.90661 19.5911 9.04032 19.5911 9.205V10.6594C19.5911 10.8258 19.733 10.9595 19.9053 10.9595C20.0831 10.9595 20.2247 10.8258 20.2247 10.6594V9.205Z" fill="white"/>
<path d="M21.9533 10.0307C21.9533 9.86602 21.8117 9.73164 21.6384 9.73164C21.4645 9.73164 21.3242 9.86602 21.3242 10.0307V10.6594C21.3242 10.8254 21.4645 10.9595 21.6384 10.9595C21.8117 10.9595 21.9533 10.8254 21.9533 10.6594V10.0307Z" fill="white"/>
<path d="M12.2043 15.0034H11.5684V12.607H12.2043V15.0034Z" fill="white"/>
<path d="M7.52451 21.2749L5.77702 17.1647V21.2749H5.41016V16.701H5.96382L7.73125 20.894L9.39869 16.701H9.93241V21.2749H9.57229V17.1963L7.92451 21.2749H7.52451Z" fill="white"/>
<path d="M13.7897 20.3716C13.6228 20.9754 13.0891 21.3687 12.3487 21.3687C11.4085 21.3687 10.7012 20.7531 10.7012 19.622C10.7012 18.4913 11.388 17.8754 12.2821 17.8754C13.1695 17.8754 13.8498 18.447 13.8498 19.705H11.0683C11.1018 20.6446 11.6616 21.0769 12.3554 21.0769C12.8759 21.0769 13.2759 20.8094 13.4094 20.3716H13.7897ZM11.0751 19.4185H13.4759C13.4296 18.5734 12.929 18.1549 12.2821 18.1549C11.6487 18.1549 11.1416 18.5924 11.0751 19.4185Z" fill="white"/>
<path d="M14.6914 21.2749V17.9714H14.985L15.0386 18.6069C15.2251 18.1051 15.5785 17.8764 16.0122 17.8764C16.1521 17.8764 16.292 17.9016 16.3723 17.9274V18.2641C16.2521 18.2318 16.1322 18.2063 15.9923 18.2063C15.4852 18.2063 15.0515 18.677 15.0515 19.4705V21.2749H14.6914Z" fill="white"/>
<path d="M16.829 18.8279C16.8821 18.2631 17.4094 17.8754 18.1765 17.8754C18.9504 17.8754 19.4636 18.288 19.4636 18.9616V21.2739H19.17L19.117 20.7279C18.9032 21.0701 18.5099 21.3687 17.8897 21.3687C17.2158 21.3687 16.729 21.02 16.729 20.4355C16.729 19.8701 17.0891 19.527 18.0627 19.3745L19.1035 19.2094V18.9235C19.1035 18.447 18.7501 18.1549 18.1566 18.1549C17.6029 18.1549 17.2489 18.4273 17.2023 18.8279H16.829ZM19.1035 20.0986V19.4822L18.1698 19.6346C17.3422 19.7681 17.1023 20.0159 17.1023 20.4103C17.1023 20.8546 17.4624 21.0769 17.983 21.0769C18.5366 21.0769 19.1035 20.6769 19.1035 20.0986Z" fill="white"/>
<path d="M20.3833 21.2749V16.701H20.7434V19.3177L22.4044 17.9714H22.8915L21.11 19.4139L23.1111 21.2749H22.6246L20.7434 19.528V21.2749H20.3833Z" fill="white"/>
<path d="M23.5662 16.6996H23.9999V17.1694H23.5662V16.6996ZM23.599 17.9699H23.9591V21.2734H23.599V17.9699Z" fill="white"/>
</svg>
