<svg width="30" height="30" viewBox="0 0 30 30" fill="none" xmlns="http://www.w3.org/2000/svg">
<path d="M0 15C0 6.71573 6.71573 0 15 0C23.2843 0 30 6.71573 30 15C30 23.2843 23.2843 30 15 30C6.71573 30 0 23.2843 0 15Z" fill="url(#paint0_linear_841_1509)"/>
<path fill-rule="evenodd" clip-rule="evenodd" d="M16.3394 23.7096C16.6584 23.3763 16.8571 22.9264 16.8571 22.4296C16.8571 21.567 16.2633 20.8464 15.4642 20.6384V18.2139C16.8845 18.0096 18.0085 16.8856 18.2128 15.4653H20.6378C20.8448 16.2639 21.5659 16.8582 22.4285 16.8582C22.9257 16.8582 23.3752 16.6595 23.7085 16.3405C23.1272 20.1314 20.1308 23.1283 16.3394 23.7096ZM6.29126 16.3405C6.62462 16.6595 7.07451 16.8582 7.57129 16.8582C8.4344 16.8582 9.15497 16.2639 9.3625 15.4653H11.787C11.9917 16.8856 13.1158 18.0096 14.5356 18.2139V20.6384C13.737 20.8464 13.1427 21.567 13.1427 22.4296C13.1427 22.9264 13.3414 23.3763 13.6604 23.7096C9.86903 23.1283 6.87254 20.1314 6.29126 16.3405ZM8.49996 14.9999C8.49996 15.512 8.0835 15.9284 7.57139 15.9284C7.05975 15.9284 6.64282 15.512 6.64282 14.9999C6.64282 14.4878 7.05975 14.0713 7.57139 14.0713C8.0835 14.0713 8.49996 14.4878 8.49996 14.9999ZM13.6604 6.29175C13.3414 6.62557 13.1427 7.075 13.1427 7.57178C13.1427 8.43488 13.737 9.15545 14.5356 9.36299V11.7875C13.1158 11.9922 11.9917 13.1158 11.787 14.536H9.3625C9.15497 13.7375 8.4344 13.1432 7.57129 13.1432C7.07451 13.1432 6.62462 13.3419 6.29126 13.6609C6.87254 9.86999 9.86903 6.8735 13.6604 6.29175ZM15 6.64209C15.5121 6.64209 15.9285 7.05855 15.9285 7.57066C15.9285 8.08276 15.5121 8.49923 15 8.49923C14.4883 8.49923 14.0714 8.08276 14.0714 7.57066C14.0714 7.05855 14.4883 6.64209 15 6.64209ZM14.9994 17.3213C13.7194 17.3213 12.678 16.2799 12.678 14.9999C12.678 13.7199 13.7194 12.6785 14.9994 12.6785C16.2794 12.6785 17.3208 13.7199 17.3208 14.9999C17.3208 16.2799 16.2794 17.3213 14.9994 17.3213ZM15 23.3588C14.4883 23.3588 14.0714 22.9424 14.0714 22.4303C14.0714 21.9182 14.4883 21.5017 15 21.5017C15.5121 21.5017 15.9285 21.9182 15.9285 22.4303C15.9285 22.9424 15.5121 23.3588 15 23.3588ZM23.3565 14.9999C23.3565 15.512 22.9401 15.9284 22.428 15.9284C21.9163 15.9284 21.4994 15.512 21.4994 14.9999C21.4994 14.4878 21.9163 14.0713 22.428 14.0713C22.9401 14.0713 23.3565 14.4878 23.3565 14.9999ZM23.7085 13.6609C23.3752 13.3419 22.9257 13.1432 22.4285 13.1432C21.5659 13.1432 20.8448 13.7375 20.6378 14.536H18.2128C18.0085 13.1158 16.8845 11.9922 15.4642 11.7875V9.36299C16.2633 9.15545 16.8571 8.43488 16.8571 7.57178C16.8571 7.075 16.6584 6.62557 16.3394 6.29175C20.1308 6.8735 23.1272 9.86999 23.7085 13.6609ZM15 5.25049C9.62402 5.25049 5.25 9.62451 5.25 15.0005C5.25 20.3769 9.62402 24.7504 15 24.7504C20.3759 24.7504 24.7499 20.3769 24.7499 15.0005C24.7499 9.62451 20.3759 5.25049 15 5.25049Z" fill="white"/>
<defs>
<linearGradient id="paint0_linear_841_1509" x1="15" y1="45" x2="45" y2="15" gradientUnits="userSpaceOnUse">
<stop stop-color="#4D27A8"/>
<stop offset="1" stop-color="#A166FF"/>
</linearGradient>
</defs>
</svg>
